<svg id="Final_Icons" data-name="Final Icons" xmlns="http://www.w3.org/2000/svg" viewBox="0 0 256 256">
  <path d="M128,3.16A128,128,0,0,0,87.54,252.62c6.4,1.17,8.74-2.78,8.74-6.17,0-3-.11-11.09-.18-21.77C60.5,232.41,53,207.52,53,207.52c-5.82-14.79-14.22-18.72-14.22-18.72-11.62-7.94.88-7.78.88-7.78,12.85.9,19.61,13.19,19.61,13.19,11.42,19.56,30,13.91,37.25,10.63,1.16-8.27,4.47-13.91,8.13-17.11-28.43-3.23-58.31-14.21-58.31-63.26A49.49,49.49,0,0,1,59.51,90.12c-1.32-3.24-5.71-16.25,1.25-33.87,0,0,10.75-3.44,35.2,13.12a121.28,121.28,0,0,1,64.09,0c24.44-16.56,35.17-13.12,35.17-13.12,7,17.62,2.59,30.63,1.27,33.87a49.43,49.43,0,0,1,13.16,34.35c0,49.17-29.93,60-58.44,63.16,4.59,4,8.69,11.77,8.69,23.71,0,17.11-.16,30.91-.16,35.11,0,3.42,2.3,7.4,8.8,6.15A128,128,0,0,0,128,3.16Z" style="fill-rule: evenodd"/>
</svg>
