<?xml version="1.0" encoding="UTF-8"?>
<svg xmlns="http://www.w3.org/2000/svg" xmlns:xlink="http://www.w3.org/1999/xlink" viewBox="0 0 512 512">
  <defs>
    <style>
      .cls-1 {
        fill: url(#linear-gradient);
      }
    </style>
    <linearGradient id="linear-gradient" x1="470.95" y1="255.91" x2="40.97" y2="255.91" gradientTransform="matrix(1, 0, 0, 1, 0, 0)" gradientUnits="userSpaceOnUse">
      <stop offset="0" stop-color="#f0f"/>
      <stop offset=".09" stop-color="#f40aff"/>
      <stop offset=".23" stop-color="#d826ff"/>
      <stop offset=".43" stop-color="#aa54ff"/>
      <stop offset=".66" stop-color="#6b93ff"/>
      <stop offset=".91" stop-color="#1be3ff"/>
      <stop offset="1" stop-color="aqua"/>
    </linearGradient>
  </defs>
  <g id="Layer_1" data-name="Layer 1">
    <path class="cls-1" d="M258.5,113c2.04,1.74,4.12,3.99,6.22,6.39,2.1,2.42,4.23,5.06,6.37,7.85,2.14,2.78,4.29,5.75,6.44,8.85l6.48,9.5c8.68,12.74,17.58,25.44,26.64,38.41,9.05,12.99,18.23,26.38,27.24,40.46,9.02,14.03,17.86,28.69,26.43,43.66,17.16,29.9,33.59,60.52,48.61,91.4,3.75,7.73,7.45,15.43,10.99,23.2,3.59,7.73,7.05,15.49,10.44,23.23,3.36,7.76,6.65,15.5,9.77,23.27,3.13,7.76,6.15,15.51,8.89,23.34l-.93,.25c-1.87-8.21-3.32-16.42-4.65-24.64-1.35-8.21-2.5-16.42-3.55-24.63-2.07-16.42-3.69-32.84-4.92-49.26-2.48-32.84-3.51-65.68-3.49-98.51,.03-32.83,1.19-65.67,3.78-98.5,1.29-16.42,2.98-32.83,5.13-49.24,1.09-8.21,2.28-16.41,3.68-24.62,1.37-8.21,2.88-16.41,4.8-24.62l.88,.32c-2.7,6.09-5.7,11.92-8.79,17.67-3.09,5.76-6.31,11.41-9.61,16.98-6.62,11.15-13.6,21.99-20.85,32.61-14.5,21.23-30.07,41.57-46.44,61.24-16.36,19.68-33.6,38.61-51.97,56.59-9.2,8.98-18.67,17.73-28.54,26.15-4.93,4.21-9.99,8.32-15.15,12.34-5.16,4.02-10.44,7.94-16.04,11.59l-.38,.25-.39-.25c-5.64-3.62-10.94-7.52-16.12-11.52-2.61-1.98-5.13-4.05-7.69-6.07-2.52-2.06-5.03-4.13-7.5-6.23-9.9-8.39-19.37-17.14-28.57-26.13-18.36-17.99-35.52-37-51.8-56.73-16.3-19.73-31.8-40.12-46.31-61.35-7.24-10.63-14.24-21.46-20.87-32.59-1.66-2.78-3.3-5.58-4.9-8.41-1.61-2.82-3.21-5.65-4.76-8.53-3.11-5.74-6.14-11.55-8.87-17.61l.88-.32c1.91,8.21,3.41,16.41,4.78,24.62,1.39,8.21,2.58,16.41,3.66,24.62,2.14,16.41,3.83,32.83,5.12,49.24,2.6,32.83,3.75,65.66,3.83,98.5,.04,32.83-.98,65.67-3.45,98.51-1.22,16.42-2.85,32.84-4.93,49.26-1.05,8.21-2.2,16.42-3.56,24.63-1.33,8.21-2.8,16.42-4.68,24.64l-.93-.25c2.82-7.86,5.94-15.64,9.17-23.42,3.22-7.79,6.61-15.55,10.07-23.33l5.3-11.64c1.78-3.89,3.63-7.74,5.46-11.63,3.67-7.77,7.46-15.5,11.33-23.23,15.48-30.9,32.38-61.53,50.03-91.37,8.82-14.91,17.92-29.47,27.17-43.45,9.26-13.95,18.64-27.31,27.89-40.23,9.24-12.97,18.33-25.65,27.19-38.42,2.22-3.18,4.42-6.4,6.62-9.46,2.2-3.08,4.4-5.99,6.58-8.81,2.18-2.79,4.35-5.44,6.49-7.91,2.14-2.46,4.25-4.78,6.32-6.64Zm0,1c-2.08,5.2-4.11,9.95-6.12,14.56-2.01,4.6-3.99,9.01-5.96,13.29-1.97,4.25-3.92,8.41-5.87,12.4-1.95,4.01-3.9,7.85-5.83,11.75-7.74,15.5-15.25,31.1-22.61,46.41-7.35,15.35-14.56,30.28-21.91,44.6-7.35,14.29-14.85,28.01-22.62,41.37-15.55,26.71-31.84,52.63-49.56,78.28-4.43,6.41-8.93,12.82-13.56,19.19-2.32,3.18-4.62,6.4-6.99,9.58l-7.15,9.56c-4.84,6.36-9.75,12.74-14.83,19.08-5.07,6.36-10.25,12.71-15.73,18.99l-.69,.79-.24-1.04c-1.91-8.21-3.41-16.41-4.77-24.62-1.39-8.21-2.58-16.41-3.66-24.62-2.14-16.41-3.83-32.83-5.12-49.24-2.6-32.83-3.75-65.66-3.84-98.5-.05-32.83,.97-65.67,3.44-98.51,1.22-16.42,2.85-32.84,4.93-49.26,1.05-8.21,2.21-16.42,3.57-24.63,1.33-8.21,2.8-16.42,4.68-24.64l.18-.8,.7,.48c5.5,3.74,10.69,7.73,15.81,11.79,2.57,2.02,5.08,4.09,7.58,6.16,2.52,2.06,4.99,4.17,7.44,6.29,9.81,8.47,19.26,17.24,28.48,26.21,18.39,17.97,35.79,36.77,52.39,56.24,16.62,19.46,32.36,39.65,46.9,60.85,7.25,10.62,14.23,21.46,20.78,32.67,1.64,2.8,3.25,5.63,4.84,8.47,1.55,2.88,3.15,5.71,4.64,8.63,3.04,5.8,5.96,11.7,8.55,17.88h-.77c2.63-6.15,5.58-12.02,8.64-17.8,3.06-5.78,6.23-11.47,9.52-17.06,6.58-11.18,13.55-22.03,20.81-32.64,14.52-21.22,30.18-41.48,46.72-61,16.54-19.52,33.86-38.39,52.26-56.35,9.2-8.98,18.67-17.73,28.5-26.19,4.92-4.22,9.93-8.37,15.06-12.41,5.13-4.04,10.35-8.01,15.88-11.72l.7-.47,.18,.79c1.89,8.21,3.36,16.42,4.7,24.64,1.36,8.21,2.52,16.42,3.58,24.63,2.08,16.42,3.71,32.84,4.93,49.26,2.46,32.84,3.49,65.68,3.39,98.51-.11,32.83-1.27,65.67-3.88,98.5-1.29,16.41-2.98,32.83-5.11,49.24-1.08,8.21-2.26,16.41-3.65,24.62-1.36,8.21-2.85,16.41-4.75,24.62l-.25,1.06-.69-.81c-5.35-6.31-10.41-12.69-15.37-19.07-4.97-6.37-9.77-12.77-14.49-19.14-4.7-6.4-9.33-12.77-13.82-19.18-4.54-6.37-8.93-12.8-13.27-19.21-17.33-25.67-33.25-51.59-48.43-78.25-7.6-13.31-14.94-26.93-22.09-41.17-7.17-14.19-14.16-29.08-21.28-44.36-7.11-15.3-14.39-30.88-21.88-46.41l-5.65-11.71c-1.89-3.97-3.78-8.07-5.69-12.36-1.9-4.28-3.82-8.7-5.76-13.36-1.94-4.66-3.91-9.48-5.91-14.82Z"/>
  </g>
  <g id="Layer_2" data-name="Layer 2"/>
  <g id="Layer_3" data-name="Layer 3"/>
</svg>