<?xml version="1.0" standalone="no"?>
<!DOCTYPE svg PUBLIC "-//W3C//DTD SVG 20010904//EN"
 "http://www.w3.org/TR/2001/REC-SVG-20010904/DTD/svg10.dtd">
<svg version="1.0" xmlns="http://www.w3.org/2000/svg"
 width="512.000000pt" height="512.000000pt" viewBox="0 0 512.000000 512.000000"
 preserveAspectRatio="xMidYMid meet">
<metadata>
Created by potrace 1.14, written by Peter Selinger 2001-2017
</metadata>
<g transform="translate(0.000000,512.000000) scale(0.100000,-0.100000)"
fill="#000000" stroke="none">
<path d="M576 4523 c-8 -29 -44 -232 -56 -318 -6 -44 -13 -91 -15 -105 -9 -57
-15 -108 -20 -155 -2 -27 -9 -93 -14 -145 -13 -114 -18 -178 -26 -290 -4 -47
-8 -110 -10 -140 -25 -312 -24 -1270 0 -1565 2 -22 6 -83 10 -135 6 -101 11
-158 21 -255 4 -33 7 -73 9 -90 3 -41 17 -167 20 -185 1 -8 6 -40 10 -70 8
-67 14 -107 20 -140 2 -14 7 -45 10 -70 7 -49 43 -235 51 -262 6 -21 40 16
176 187 418 529 829 1163 1134 1750 35 66 67 120 73 120 5 0 43 -32 83 -70 91
-89 251 -225 343 -294 39 -29 77 -58 85 -64 31 -25 70 -47 81 -47 17 0 125 79
258 189 123 101 148 122 275 243 44 42 82 76 82 75 1 -1 37 -72 80 -157 137
-273 392 -715 556 -964 32 -49 58 -90 58 -92 0 -17 345 -497 501 -699 162
-208 156 -201 163 -179 7 23 52 272 59 329 3 22 10 69 16 105 6 36 13 88 16
115 3 28 7 73 10 100 3 28 8 61 10 75 2 14 7 68 11 120 3 52 7 102 9 110 2 8
6 67 10 130 4 63 9 133 10 155 24 287 23 1249 0 1535 -2 25 -7 90 -10 145 -3
55 -8 111 -10 125 -2 14 -6 63 -10 110 -3 47 -8 92 -10 100 -2 8 -6 46 -10 83
-3 37 -8 77 -10 87 -2 10 -7 50 -10 87 -4 37 -9 71 -11 74 -1 3 -6 28 -10 55
-3 27 -8 56 -9 66 -2 9 -7 38 -11 65 -5 26 -9 50 -9 53 -1 3 -7 31 -14 63 -7
31 -15 57 -17 57 -14 0 -240 -178 -359 -283 -209 -186 -435 -412 -625 -627
-41 -47 -77 -87 -80 -90 -12 -11 -238 -288 -264 -322 l-28 -38 -77 110 c-90
130 -145 209 -266 385 -87 127 -139 198 -160 221 -5 6 -24 26 -41 46 -17 19
-35 38 -42 41 -22 14 -111 -94 -324 -398 -289 -412 -318 -450 -318 -417 0 15
-263 331 -425 511 -108 120 -397 409 -519 520 -132 119 -347 295 -397 325 -26
15 -28 15 -33 -1z m179 -323 c231 -390 613 -899 952 -1268 29 -31 53 -60 53
-64 0 -5 -56 -97 -124 -205 -362 -579 -758 -1342 -976 -1880 -19 -46 -35 -82
-36 -80 -1 1 6 47 16 102 10 55 20 118 23 140 28 209 35 267 42 335 3 30 7 75
10 100 5 44 7 75 21 255 10 133 11 161 20 375 13 346 8 1020 -11 1290 -1 25
-6 90 -9 145 -4 55 -9 118 -11 140 -2 22 -7 72 -10 110 -13 150 -55 481 -75
590 -5 28 -11 61 -14 75 -2 14 -7 43 -11 65 -6 36 -3 33 32 -35 22 -41 71
-127 108 -190z m3746 209 c-5 -24 -13 -66 -17 -94 -3 -27 -8 -53 -10 -56 -1
-3 -6 -30 -9 -59 -4 -30 -8 -57 -10 -60 -1 -3 -6 -39 -10 -80 -4 -41 -8 -77
-10 -80 -2 -3 -6 -39 -10 -80 -4 -41 -8 -82 -10 -90 -2 -8 -6 -53 -10 -100 -4
-47 -8 -98 -10 -115 -2 -16 -6 -77 -10 -135 -4 -58 -8 -125 -10 -150 -19 -230
-25 -991 -10 -1310 12 -272 21 -428 30 -515 3 -27 7 -77 10 -110 6 -64 12
-129 20 -185 2 -19 7 -57 10 -85 5 -47 37 -267 50 -345 l6 -35 -17 35 c-19 38
-25 53 -77 180 -33 78 -76 177 -168 380 -52 115 -244 500 -317 635 -35 66 -83
154 -105 195 -79 147 -105 192 -234 410 -126 213 -119 202 -166 272 l-37 57
26 28 c15 15 54 59 88 97 33 38 66 74 71 80 317 350 766 987 925 1313 14 28
26 50 28 48 1 -1 -2 -22 -7 -46z m-1891 -499 c31 -75 44 -106 74 -173 14 -32
26 -60 26 -62 0 -2 37 -80 81 -172 45 -92 94 -195 109 -228 15 -33 51 -109 79
-168 28 -60 51 -111 51 -114 0 -3 -56 -89 -124 -192 -126 -189 -243 -389 -305
-519 -19 -40 -38 -72 -41 -72 -4 0 -23 35 -43 78 -70 147 -214 390 -344 578
-35 51 -63 95 -63 98 0 3 55 117 121 253 188 384 262 539 309 651 24 56 44
101 45 100 2 -2 13 -28 25 -58z"/>
</g>
</svg>
